<svg id="visual" viewBox="0 0 900 675" width="900" height="675" xmlns="http://www.w3.org/2000/svg" xmlns:xlink="http://www.w3.org/1999/xlink" version="1.1"><rect width="900" height="675" fill="#FFFFFF"></rect><g><g transform="translate(193 244)"><path d="M58.3 -66.6C77.8 -53.1 97.5 -36.9 99.9 -18.3C102.3 0.2 87.4 21 72.5 37.1C57.5 53.1 42.5 64.3 25.4 71.3C8.2 78.2 -11.1 80.9 -30.8 77C-50.5 73.1 -70.7 62.8 -79.3 46.5C-87.9 30.1 -85 7.8 -80.5 -13.6C-76 -35 -69.9 -55.5 -56.2 -70.1C-42.5 -84.7 -21.3 -93.3 -0.9 -92.2C19.4 -91.1 38.7 -80.2 58.3 -66.6Z" fill="#ffd3d3"></path></g><g transform="translate(687 130)"><path d="M58.5 -70.9C75.1 -55.9 87.2 -36.7 90.4 -16.3C93.6 4.2 87.9 25.8 77 44C66 62.2 49.7 76.9 29.5 86.8C9.3 96.6 -14.7 101.6 -36.8 95.9C-58.9 90.1 -79.1 73.7 -86.2 53.6C-93.4 33.4 -87.5 9.5 -79.4 -10.1C-71.3 -29.7 -61 -45.1 -47.4 -60.6C-33.8 -76.2 -16.9 -91.9 2 -94.3C21 -96.7 42 -85.9 58.5 -70.9Z" fill="#ffd3d3"></path></g></g></svg>